<svg width="15" height="15" viewBox="0 0 15 15" fill="none" xmlns="http://www.w3.org/2000/svg">
<g clip-path="url(#clip0_307_1203)">
<path d="M8.73135 5.48508C8.39553 5.37314 8.05971 5.2612 7.61195 5.2612H6.82837V6.60448H8.05971V8.39553H6.82837V9.73881H7.72389C8.17165 9.73881 8.50747 9.62687 8.73135 9.51493C9.06718 9.40299 9.29106 9.17911 9.403 8.84329C9.51494 8.50747 9.62688 8.05971 9.62688 7.50001C9.62688 6.9403 9.51494 6.49254 9.403 6.26866C9.17912 5.8209 9.06718 5.59702 8.73135 5.48508Z" fill="#0D6EFD"/>
<path d="M12.7612 2.12687L7.38806 0L2.12687 2.23881L0 7.5L2.23881 12.7612L7.5 14.8881L12.7612 12.6493L14.8881 7.38806L12.7612 2.12687ZM10.9701 9.51493C10.6343 10.0746 10.2985 10.4104 9.73881 10.7463C9.1791 11.0821 8.50746 11.194 7.72388 11.194H4.92537V8.39552H3.80597V6.60448H4.92537V3.69403H7.72388C8.50746 3.69403 9.1791 3.80597 9.73881 4.14179C10.2985 4.47761 10.6343 4.92537 10.9701 5.48507C11.306 6.04478 11.4179 6.71642 11.4179 7.5C11.4179 8.28358 11.306 8.95522 10.9701 9.51493Z" fill="#0D6EFD"/>
</g>
<defs>
<clipPath id="clip0_307_1203">
<rect width="15" height="15" fill="white"/>
</clipPath>
</defs>
</svg>
