<svg width="66" height="66" viewBox="0 0 66 66" fill="none" xmlns="http://www.w3.org/2000/svg">
<circle cx="32.6532" cy="32.6532" r="31.5765" transform="rotate(-0.139343 32.6532 32.6532)" fill="#1A317F"/>
<path fill-rule="evenodd" clip-rule="evenodd" d="M33 66C51.2263 66 66 51.2228 66 33.0001C66 14.7736 51.2224 0 33 0C14.7736 0 8.2178e-07 14.7776 8.2178e-07 33.0001C-0.00402357 51.2228 14.7736 66 33 66ZM33.0765 38.9441C23.6232 34.1471 17.5786 26.9434 15.1036 18.5404C17.2284 15.7193 19.9087 13.365 23.0155 11.6788C22.3072 21.7921 27.4383 31.2374 35.5716 37.4833L35.4388 37.5557C34.7345 37.93 33.7405 38.4572 33.0765 38.9441ZM44.542 28.7664C45.6366 23.5146 43.3105 17.14 41.9342 15.003C48.7154 18.5042 58.1925 28.4163 53.7697 37.3304C50.84 43.2382 45.3871 45.4838 42.1998 46.7958C41.5478 47.0654 40.9884 47.2948 40.5699 47.5081C38.0869 48.7679 33.2294 52.3291 35.0323 57.8228C29.8409 56.0358 28.0903 51.7137 29.7926 47.8099C31.4386 44.0189 33.9981 42.1234 36.5576 40.2279C39.8576 37.7811 43.1697 35.3262 44.542 28.7664ZM29.861 41.6123C22.3716 40.8074 15.7756 37.7328 10.9705 33.0363C11.5057 35.1894 12.3992 37.2941 13.4173 39.2701C18.3351 41.7009 23.5145 42.6828 29.2413 42.2804C29.3338 42.1999 29.4223 42.0912 29.5149 41.9826C29.6235 41.8538 29.7362 41.721 29.861 41.6123ZM28.3961 43.3146C23.6634 44.2845 19.1561 43.7412 14.8581 41.8538C15.176 42.2683 15.4536 42.6466 15.7233 43.0088C16.2223 43.6889 16.6811 44.3167 17.3049 45.0371C20.9791 45.5401 24.4723 45.4918 27.7884 44.1437C27.8891 44.035 28.05 43.8056 28.1868 43.6044C28.2673 43.4877 28.3438 43.379 28.3961 43.3146ZM19.2688 47.2062C19.6189 47.5724 19.9811 47.9507 20.4962 48.2767C22.5688 48.2003 25.0679 47.6852 26.6053 46.2605L27.0157 45.3792C24.5568 46.502 21.5023 47.0533 18.7698 46.7032C18.9428 46.8601 19.1078 47.0332 19.2688 47.2062ZM32.0341 39.7249C31.7243 39.9502 31.2132 40.3527 30.9798 40.5942C22.3233 39.1333 15.18 34.8916 10.5117 28.8711C10.9947 26.3639 11.8398 23.9975 12.9947 21.8203C15.9648 29.6236 22.6694 36.0466 32.0341 39.7249Z" fill="white"/>
</svg>
